<svg width="177" height="120" viewBox="0 0 177 120" fill="none" xmlns="http://www.w3.org/2000/svg">
<rect x="0.25" y="0.25" width="176.316" height="119.5" rx="19.75" fill="white" stroke="#5B5353" stroke-width="0.5"/>
<path d="M58.8359 46.4453V64.9219C58.8359 66.888 58.3997 68.6654 57.5273 70.2539C56.668 71.8294 55.3594 73.0794 53.6016 74.0039C51.8568 74.9284 49.6562 75.3906 47 75.3906C43.224 75.3906 40.3464 74.4271 38.3672 72.5C36.388 70.5729 35.3984 68.0208 35.3984 64.8438V46.4453H41.4336V63.9258C41.4336 66.2826 41.9154 67.9362 42.8789 68.8867C43.8424 69.8372 45.2682 70.3125 47.1562 70.3125C48.4844 70.3125 49.5586 70.0846 50.3789 69.6289C51.2122 69.1732 51.8242 68.4701 52.2148 67.5195C52.6055 66.569 52.8008 65.3581 52.8008 63.8867V46.4453H58.8359ZM82.6836 67.0703C82.6836 68.763 82.2734 70.2344 81.4531 71.4844C80.6328 72.7344 79.4349 73.6979 77.8594 74.375C76.2969 75.0521 74.3958 75.3906 72.1562 75.3906C71.1667 75.3906 70.1966 75.3255 69.2461 75.1953C68.3086 75.0651 67.4036 74.8763 66.5312 74.6289C65.6719 74.3685 64.8516 74.0495 64.0703 73.6719V68.0469C65.4245 68.6458 66.8307 69.1862 68.2891 69.668C69.7474 70.1497 71.1927 70.3906 72.625 70.3906C73.6146 70.3906 74.4089 70.2604 75.0078 70C75.6198 69.7396 76.0625 69.3815 76.3359 68.9258C76.6094 68.4701 76.7461 67.9492 76.7461 67.3633C76.7461 66.6471 76.5052 66.0352 76.0234 65.5273C75.5417 65.0195 74.8776 64.5443 74.0312 64.1016C73.1979 63.6589 72.2539 63.1836 71.1992 62.6758C70.5352 62.3633 69.8125 61.9857 69.0312 61.543C68.25 61.0872 67.5078 60.5339 66.8047 59.8828C66.1016 59.2318 65.5221 58.444 65.0664 57.5195C64.6237 56.582 64.4023 55.4622 64.4023 54.1602C64.4023 52.4544 64.793 50.9961 65.5742 49.7852C66.3555 48.5742 67.4688 47.6497 68.9141 47.0117C70.3724 46.3607 72.0911 46.0352 74.0703 46.0352C75.5547 46.0352 76.9674 46.2109 78.3086 46.5625C79.6628 46.901 81.0755 47.3958 82.5469 48.0469L80.5938 52.7539C79.2786 52.2201 78.1003 51.8099 77.0586 51.5234C76.0169 51.224 74.9557 51.0742 73.875 51.0742C73.1198 51.0742 72.4753 51.1979 71.9414 51.4453C71.4076 51.6797 71.0039 52.0182 70.7305 52.4609C70.457 52.8906 70.3203 53.3919 70.3203 53.9648C70.3203 54.6419 70.5156 55.2148 70.9062 55.6836C71.3099 56.1393 71.9089 56.582 72.7031 57.0117C73.5104 57.4414 74.513 57.9427 75.7109 58.5156C77.1693 59.2057 78.4128 59.9284 79.4414 60.6836C80.4831 61.4258 81.2839 62.3047 81.8438 63.3203C82.4036 64.3229 82.6836 65.5729 82.6836 67.0703ZM104.715 67.0703C104.715 68.763 104.305 70.2344 103.484 71.4844C102.664 72.7344 101.466 73.6979 99.8906 74.375C98.3281 75.0521 96.4271 75.3906 94.1875 75.3906C93.1979 75.3906 92.2279 75.3255 91.2773 75.1953C90.3398 75.0651 89.4349 74.8763 88.5625 74.6289C87.7031 74.3685 86.8828 74.0495 86.1016 73.6719V68.0469C87.4557 68.6458 88.862 69.1862 90.3203 69.668C91.7786 70.1497 93.224 70.3906 94.6562 70.3906C95.6458 70.3906 96.4401 70.2604 97.0391 70C97.651 69.7396 98.0938 69.3815 98.3672 68.9258C98.6406 68.4701 98.7773 67.9492 98.7773 67.3633C98.7773 66.6471 98.5365 66.0352 98.0547 65.5273C97.5729 65.0195 96.9089 64.5443 96.0625 64.1016C95.2292 63.6589 94.2852 63.1836 93.2305 62.6758C92.5664 62.3633 91.8438 61.9857 91.0625 61.543C90.2812 61.0872 89.5391 60.5339 88.8359 59.8828C88.1328 59.2318 87.5534 58.444 87.0977 57.5195C86.6549 56.582 86.4336 55.4622 86.4336 54.1602C86.4336 52.4544 86.8242 50.9961 87.6055 49.7852C88.3867 48.5742 89.5 47.6497 90.9453 47.0117C92.4036 46.3607 94.1224 46.0352 96.1016 46.0352C97.5859 46.0352 98.9987 46.2109 100.34 46.5625C101.694 46.901 103.107 47.3958 104.578 48.0469L102.625 52.7539C101.31 52.2201 100.132 51.8099 99.0898 51.5234C98.0482 51.224 96.987 51.0742 95.9062 51.0742C95.151 51.0742 94.5065 51.1979 93.9727 51.4453C93.4388 51.6797 93.0352 52.0182 92.7617 52.4609C92.4883 52.8906 92.3516 53.3919 92.3516 53.9648C92.3516 54.6419 92.5469 55.2148 92.9375 55.6836C93.3411 56.1393 93.9401 56.582 94.7344 57.0117C95.5417 57.4414 96.5443 57.9427 97.7422 58.5156C99.2005 59.2057 100.444 59.9284 101.473 60.6836C102.514 61.4258 103.315 62.3047 103.875 63.3203C104.435 64.3229 104.715 65.5729 104.715 67.0703ZM133.582 60.4492C133.582 63.6654 132.964 66.3542 131.727 68.5156C130.503 70.6641 128.725 72.2852 126.395 73.3789C124.064 74.4596 121.258 75 117.977 75H109.891V46.4453H118.855C121.85 46.4453 124.448 46.9792 126.648 48.0469C128.849 49.1016 130.555 50.6706 131.766 52.7539C132.977 54.8242 133.582 57.3893 133.582 60.4492ZM127.293 60.6055C127.293 58.4961 126.98 56.7643 126.355 55.4102C125.743 54.043 124.832 53.0339 123.621 52.3828C122.423 51.7318 120.939 51.4062 119.168 51.4062H115.945V70H118.543C121.499 70 123.693 69.2122 125.125 67.6367C126.57 66.0612 127.293 63.7174 127.293 60.6055Z" fill="black" fill-opacity="0.5"/>
</svg>
